<?xml version="1.0" standalone="no"?>
<!DOCTYPE svg PUBLIC "-//W3C//DTD SVG 20010904//EN"
 "http://www.w3.org/TR/2001/REC-SVG-20010904/DTD/svg10.dtd">
<svg version="1.0" xmlns="http://www.w3.org/2000/svg"
 width="256.000000pt" height="256.000000pt" viewBox="0 0 256.000000 256.000000"
 preserveAspectRatio="xMidYMid meet">
<metadata>
Created by potrace 1.11, written by Peter Selinger 2001-2013
</metadata>
<g transform="translate(0.000000,256.000000) scale(0.100000,-0.100000)"
fill="#000000" stroke="none">
<path d="M750 2170 l0 -300 -29 0 c-33 0 -85 -33 -114 -72 -24 -32 -33 -114
-18 -160 16 -48 68 -96 116 -106 37 -7 40 -11 43 -44 3 -36 4 -37 50 -40 39
-3 47 -6 47 -23 0 -17 -8 -20 -47 -23 l-48 -3 0 -140 0 -139 216 0 c147 0 213
-3 209 -10 -4 -6 1 -22 10 -36 l17 -26 -188 3 -187 4 -15 -33 -16 -32 -140 0
c-192 0 -198 3 -266 141 l-52 105 22 44 c31 61 31 147 0 218 l-23 53 -34 -70
c-39 -81 -73 -113 -117 -109 -57 6 -74 98 -36 205 11 32 20 58 20 60 0 1 -20
-5 -45 -14 -156 -53 -163 -299 -11 -401 26 -17 58 -32 70 -32 17 0 32 -22 80
-117 40 -80 60 -133 62 -163 2 -35 9 -51 34 -72 38 -35 95 -38 133 -8 22 18
40 20 166 20 l141 0 14 -35 c10 -22 24 -37 40 -41 l26 -6 0 -202 0 -203 25
-23 c19 -18 22 -26 14 -37 -6 -7 -9 -24 -7 -37 5 -22 0 -24 -76 -39 -169 -34
-250 -70 -244 -110 l3 -22 245 0 245 0 3 62 c2 35 9 74 17 89 9 18 11 34 4 51
-7 18 -4 28 11 43 11 11 22 31 26 45 l6 25 128 0 128 0 6 -25 c4 -14 15 -34
26 -45 15 -15 18 -25 11 -43 -7 -17 -5 -33 4 -51 8 -15 15 -54 17 -89 l3 -62
245 0 245 0 3 22 c6 40 -75 76 -244 110 -76 15 -81 17 -76 39 2 13 -1 30 -7
37 -8 11 -5 19 14 37 l25 23 0 203 0 202 26 6 c16 4 30 19 40 41 l14 35 141 0
c126 0 144 -2 166 -20 38 -30 95 -27 133 8 25 21 32 37 34 72 2 30 22 83 62
163 48 95 63 117 80 117 12 0 44 15 70 33 152 101 145 347 -11 400 -25 9 -45
15 -45 14 0 -2 9 -28 20 -60 38 -107 21 -199 -36 -205 -44 -4 -78 28 -117 109
l-34 70 -23 -53 c-31 -71 -31 -157 0 -218 l22 -44 -52 -105 c-68 -138 -74
-141 -266 -141 l-140 0 -16 32 -15 33 -187 -4 -188 -3 17 26 c9 14 14 30 10
36 -4 7 64 10 214 10 l221 0 0 140 0 140 -45 0 c-41 0 -45 2 -45 25 0 23 4 25
44 25 44 0 45 0 48 37 3 32 7 38 33 43 64 13 115 67 130 139 17 79 -45 179
-122 198 l-38 9 -3 297 -2 297 -535 0 -535 0 0 -300z m1020 -44 l0 -295 -27 2
c-24 2 -27 8 -39 66 -26 125 -107 204 -225 218 -63 7 -128 -16 -167 -61 l-29
-34 -35 37 c-35 37 -91 61 -145 61 -117 0 -242 -119 -243 -232 0 -35 -2 -38
-30 -38 l-30 0 0 285 0 285 485 0 485 0 0 -294z m-600 -74 c52 -26 80 -74 80
-138 0 -66 -13 -100 -53 -142 -44 -47 -78 -62 -135 -62 -185 0 -206 258 -27
341 50 23 90 24 135 1z m393 -19 c57 -40 87 -94 87 -161 0 -111 -57 -168 -160
-160 -48 3 -67 10 -97 34 -79 64 -103 161 -60 244 43 85 144 104 230 43z
m-823 -243 l0 -40 -50 0 c-27 0 -50 3 -50 6 0 16 24 45 48 58 43 24 52 20 52
-24z m1160 4 l25 -24 -48 0 c-46 0 -47 1 -47 31 0 27 3 30 23 24 12 -4 33 -18
47 -31z m-222 -371 c-3 -17 -31 -18 -391 -21 -382 -2 -387 -2 -387 18 0 20 6
20 391 20 366 0 390 -1 387 -17z m92 -133 l0 -60 -485 0 -485 0 0 60 0 60 485
0 485 0 0 -60z m-140 -415 l0 -124 -242 2 -241 2 -28 28 c-35 34 -63 34 -97 0
-15 -15 -39 -28 -53 -29 -26 -1 -26 0 -33 80 -3 45 -6 100 -6 124 l0 42 350 0
350 0 0 -125z m-1166 86 c17 -19 17 -19 -23 -9 -22 6 -38 14 -35 19 9 15 40
10 58 -10z m1690 10 c3 -5 -13 -13 -35 -19 -40 -10 -40 -10 -23 9 18 20 49 25
58 10z m-1599 -31 c3 -5 1 -10 -4 -10 -6 0 -11 5 -11 10 0 6 2 10 4 10 3 0 8
-4 11 -10z m1465 0 c0 -5 -5 -10 -11 -10 -5 0 -7 5 -4 10 3 6 8 10 11 10 2 0
4 -4 4 -10z m-920 -185 c15 -18 5 -51 -18 -60 -25 -9 -55 31 -42 56 13 23 43
25 60 4z m-11 -169 c15 -18 3 -46 -19 -46 -10 0 -21 7 -24 16 -6 16 9 44 24
44 4 0 13 -6 19 -14z m-71 -393 c-21 -2 -55 -2 -75 0 -21 2 -4 4 37 4 41 0 58
-2 38 -4z m600 0 c-21 -2 -55 -2 -75 0 -21 2 -4 4 37 4 41 0 58 -2 38 -4z"/>
<path d="M890 2305 l0 -55 398 2 397 3 0 50 0 50 -397 3 -398 2 0 -55z m583
18 c-100 -2 -266 -2 -370 0 -103 1 -21 2 182 2 204 0 288 -1 188 -2z"/>
<path d="M1092 1888 c-18 -18 -14 -53 8 -73 17 -15 24 -16 45 -7 32 15 41 37
27 68 -13 27 -58 34 -80 12z"/>
<path d="M1402 1888 c-19 -19 -15 -66 7 -78 11 -5 24 -10 30 -10 16 0 51 38
51 54 0 37 -61 61 -88 34z"/>
<path d="M1025 945 c-30 -30 -31 -54 -4 -89 26 -33 68 -34 97 -3 30 32 28 71
-4 96 -35 27 -59 26 -89 -4z m79 -30 c13 -34 -24 -66 -50 -44 -15 12 -19 41
-7 52 12 13 51 7 57 -8z"/>
</g>
</svg>
