<?xml version="1.0" standalone="no"?>
<!DOCTYPE svg PUBLIC "-//W3C//DTD SVG 20010904//EN"
 "http://www.w3.org/TR/2001/REC-SVG-20010904/DTD/svg10.dtd">
<svg version="1.0" xmlns="http://www.w3.org/2000/svg"
 width="1991.000000pt" height="1991.000000pt" viewBox="0 0 1991.000000 1991.000000"
 preserveAspectRatio="xMidYMid meet">
<metadata>
Created by potrace 1.11, written by Peter Selinger 2001-2013
</metadata>
<g transform="translate(0.000000,1991.000000) scale(0.100000,-0.100000)"
fill="#000000" stroke="none">
<path d="M8690 19833 c0 -6 -23 -16 -50 -23 -52 -12 -93 -49 -84 -75 3 -7 0
-16 -5 -20 -6 -3 -9 -10 -6 -15 3 -5 1 -11 -5 -15 -5 -3 -10 -16 -10 -29 0
-12 -3 -26 -7 -30 -4 -3 -8 -25 -9 -49 -4 -54 -18 -129 -28 -145 -8 -14 -17
-47 -21 -82 -1 -14 -8 -45 -15 -70 -7 -25 -12 -45 -11 -45 1 0 -6 -24 -15 -54
-22 -74 -25 -88 -30 -146 -3 -27 -19 -90 -36 -140 -16 -49 -31 -108 -32 -131
-2 -22 -8 -49 -14 -60 -5 -10 -13 -37 -16 -59 -4 -22 -9 -49 -11 -60 -2 -11
-11 -58 -20 -105 -9 -47 -27 -119 -40 -160 -13 -41 -24 -95 -26 -120 -1 -25
-6 -49 -10 -55 -4 -5 -8 -30 -10 -55 -1 -25 -8 -61 -15 -80 -6 -19 -17 -55
-25 -80 -7 -25 -21 -55 -32 -67 -10 -12 -17 -26 -13 -31 3 -5 -9 -23 -27 -39
-18 -17 -37 -37 -44 -46 -10 -12 -45 -15 -205 -15 -106 0 -225 -4 -264 -8 -76
-7 -144 7 -144 31 0 24 -25 22 -52 -4 -14 -14 -35 -34 -46 -44 -11 -10 -22
-33 -25 -50 -3 -18 -5 -611 -5 -1319 -1 -862 -4 -1293 -11 -1306 -6 -11 -8
-22 -5 -25 4 -3 7 -21 8 -40 3 -38 32 -107 50 -119 6 -4 21 -8 34 -8 23 0 25
-5 25 -85 0 -43 -12 -114 -22 -130 -3 -5 -6 -23 -7 -40 -3 -57 -23 -171 -37
-210 -8 -22 -18 -60 -22 -85 -4 -25 -14 -53 -22 -62 -8 -9 -12 -21 -9 -26 3
-5 -1 -17 -8 -28 -8 -10 -12 -31 -9 -46 2 -17 0 -28 -7 -28 -7 0 -10 -7 -6
-15 3 -8 0 -20 -7 -27 -7 -7 -13 -35 -14 -63 -3 -101 -25 -239 -59 -365 -8
-30 -17 -64 -20 -75 -2 -11 -7 -38 -10 -60 -6 -45 -9 -61 -24 -122 -5 -24 -14
-73 -20 -110 -5 -37 -15 -72 -23 -78 -8 -5 -14 -25 -13 -43 1 -17 -2 -32 -6
-32 -3 0 -4 -9 -1 -20 4 -16 0 -20 -17 -20 -17 0 -21 -5 -17 -19 2 -10 1 -25
-4 -33 -4 -7 -4 -20 1 -28 6 -9 2 -23 -10 -40 -11 -15 -17 -40 -16 -63 1 -22
-4 -39 -12 -42 -10 -3 -10 -10 -2 -25 6 -11 7 -20 1 -20 -5 0 -7 -17 -5 -37 2
-21 -1 -55 -7 -76 -5 -21 -12 -55 -15 -75 -2 -20 -10 -53 -16 -72 -6 -19 -11
-51 -9 -70 1 -20 -10 -71 -24 -115 -14 -44 -25 -83 -25 -87 0 -4 -5 -19 -11
-35 -7 -15 -13 -44 -15 -63 -2 -19 -9 -49 -15 -67 -5 -18 -11 -47 -11 -65 0
-18 -6 -49 -14 -68 -7 -19 -15 -47 -18 -62 -4 -16 -13 -28 -21 -28 -8 0 -15
-7 -15 -15 0 -27 -45 -37 -150 -34 -228 6 -626 6 -634 0 -6 -4 -29 -7 -51 -6
-43 2 -88 -13 -80 -26 3 -4 1 -10 -5 -14 -7 -4 -10 -462 -10 -1386 l0 -1379
-25 -10 c-32 -12 -32 -23 1 -45 l26 -17 -5 -117 c-3 -64 -8 -131 -10 -149 -3
-18 -1 -35 4 -38 5 -3 9 -20 9 -37 0 -56 22 -74 98 -83 37 -4 73 -7 80 -5 8 1
20 -3 28 -10 8 -6 23 -9 34 -6 23 6 32 -14 25 -58 -15 -99 -35 -196 -48 -235
-22 -64 -41 -179 -46 -277 -1 -7 -8 -13 -16 -13 -10 0 -15 -10 -15 -33 0 -19
-9 -68 -20 -111 -10 -42 -22 -98 -25 -124 -3 -26 -10 -60 -15 -77 -14 -47 -30
-134 -30 -164 0 -15 -4 -31 -9 -37 -6 -5 -19 -58 -31 -117 -12 -60 -29 -125
-38 -145 -8 -20 -14 -47 -13 -59 1 -13 -1 -28 -6 -35 -10 -18 -14 -34 -19 -98
-3 -30 -12 -72 -20 -93 -8 -20 -14 -50 -14 -65 0 -29 -21 -126 -51 -234 -11
-36 -19 -79 -19 -95 -1 -25 -14 -82 -51 -228 -6 -22 -12 -51 -14 -65 -2 -14
-11 -54 -20 -90 -9 -36 -18 -74 -20 -85 -2 -11 -10 -60 -19 -110 -8 -49 -20
-115 -25 -145 -6 -30 -12 -66 -14 -80 -2 -14 -9 -38 -15 -53 -7 -16 -12 -47
-12 -71 0 -23 -4 -46 -8 -51 -5 -6 -14 -41 -21 -80 -7 -38 -17 -75 -23 -82 -6
-7 -11 -30 -12 -50 -1 -21 -7 -47 -14 -59 -21 -40 -38 -99 -41 -149 -1 -27 -8
-63 -15 -80 -7 -16 -13 -49 -15 -73 -1 -24 -7 -55 -13 -70 -5 -15 -11 -43 -12
-62 -3 -39 -24 -146 -33 -170 -4 -8 -7 -22 -7 -30 -2 -16 -24 -105 -33 -130
-11 -28 -15 -45 -28 -125 -3 -16 -8 -41 -11 -55 -3 -14 -8 -45 -11 -70 -3 -25
-9 -63 -15 -85 -5 -22 -16 -71 -23 -110 -12 -63 -37 -159 -50 -193 -2 -7 -5
-16 -6 -20 0 -4 -6 -16 -12 -27 -6 -11 -14 -51 -18 -90 -3 -38 -9 -81 -13 -95
-4 -14 -8 -41 -11 -60 -2 -19 -8 -55 -14 -80 -6 -25 -11 -63 -11 -85 0 -22 -9
-65 -21 -95 -11 -30 -21 -60 -23 -67 -1 -7 -5 -16 -9 -19 -4 -4 -7 -33 -7 -64
0 -32 -6 -73 -14 -91 -8 -19 -15 -57 -17 -84 -2 -28 -11 -72 -21 -100 -10 -27
-18 -59 -18 -70 0 -11 -9 -31 -20 -45 -11 -14 -20 -33 -20 -42 0 -10 -4 -18
-8 -18 -5 0 -7 -13 -4 -30 3 -20 -1 -32 -11 -35 -11 -5 -15 -26 -15 -92 -1
-84 -8 -128 -38 -243 -8 -30 -16 -68 -19 -83 -5 -36 -27 -97 -35 -97 -3 0 -6
-33 -7 -72 0 -40 -8 -92 -17 -116 -9 -23 -18 -59 -20 -80 -14 -118 -20 -149
-31 -172 -7 -14 -16 -52 -20 -85 -6 -52 -26 -139 -55 -240 -5 -16 -12 -55 -15
-85 -4 -30 -12 -64 -18 -75 -6 -11 -16 -47 -23 -80 -7 -33 -15 -71 -19 -85 -3
-14 -10 -56 -15 -95 -19 -148 -52 -319 -71 -364 -5 -13 -14 -60 -19 -105 -15
-123 -31 -206 -41 -206 -5 0 -8 -3 -7 -7 1 -5 -5 -28 -12 -52 -11 -33 -11 -46
-3 -48 7 -3 10 -10 7 -18 -4 -9 8 -18 38 -26 49 -13 178 -18 178 -6 0 4 93 5
208 3 114 -3 698 -6 1297 -8 600 -2 1095 -5 1100 -7 6 -2 12 -2 15 -1 3 1 23
3 46 5 58 4 108 22 131 48 18 19 39 88 35 109 -1 4 3 20 10 35 6 15 14 48 18
73 4 25 15 77 24 115 9 39 18 79 20 90 4 21 17 78 37 160 7 28 14 66 16 85 3
19 12 51 21 70 9 19 18 55 19 80 2 24 7 47 11 50 4 3 8 14 8 25 2 39 60 304
89 410 3 11 10 43 15 70 6 28 13 61 16 75 3 14 9 50 13 80 9 53 48 195 60 215
3 6 6 17 7 25 0 8 6 29 13 45 7 17 14 48 16 70 4 66 25 178 37 192 6 7 8 13 5
13 -12 0 17 76 33 87 10 7 22 32 26 55 4 24 9 46 10 51 1 4 2 12 3 17 0 6 17
26 36 46 19 19 35 37 35 39 0 3 26 31 58 63 81 83 142 155 142 170 0 6 6 12
14 12 7 0 24 15 36 33 12 18 40 41 62 52 22 11 44 30 49 42 5 13 16 26 24 29
8 4 15 11 15 17 0 21 35 87 50 92 27 10 87 72 94 98 3 14 58 78 121 144 63 65
122 132 130 150 18 37 29 45 59 47 15 1 21 8 21 23 0 12 9 31 20 42 84 84 121
128 136 162 10 21 22 39 26 39 11 0 93 73 93 83 0 4 12 21 28 38 15 17 37 43
50 58 27 31 32 36 76 81 19 19 38 45 41 58 8 32 46 83 57 76 4 -3 8 -1 8 4 0
6 11 13 25 16 15 4 27 16 31 32 4 14 19 40 35 57 16 17 29 34 29 38 0 4 11 10
25 13 14 4 29 14 32 24 9 22 52 81 80 109 13 12 23 27 23 33 0 6 19 28 42 48
61 54 82 77 98 109 8 15 28 42 44 59 17 16 46 49 65 72 27 32 40 41 58 37 20
-3 25 1 30 25 3 16 12 35 19 41 8 6 14 15 14 20 0 5 8 18 18 30 56 70 76 89
93 89 12 0 19 7 19 20 0 46 70 -1 113 -76 4 -8 19 -25 33 -39 13 -13 24 -28
24 -33 0 -5 15 -17 34 -27 19 -11 37 -29 40 -41 4 -13 32 -49 64 -81 32 -33
62 -66 66 -74 16 -32 34 -60 50 -78 9 -10 16 -25 14 -32 -2 -8 4 -13 15 -13
10 1 26 -10 35 -24 9 -15 34 -44 54 -65 21 -22 36 -43 33 -47 -3 -4 7 -15 21
-25 15 -10 23 -22 20 -31 -3 -8 -1 -14 5 -14 14 0 75 -51 72 -60 -1 -4 16 -18
37 -31 22 -13 40 -29 40 -35 0 -14 34 -54 46 -54 5 0 22 -24 37 -54 16 -30 66
-92 111 -138 46 -46 86 -93 90 -105 4 -11 31 -46 60 -77 83 -85 108 -118 102
-131 -3 -8 14 -23 40 -36 24 -13 44 -30 44 -36 0 -7 4 -13 9 -13 4 0 19 -20
32 -45 13 -25 27 -45 31 -45 5 0 8 -6 8 -13 0 -7 10 -23 23 -34 12 -11 40 -41
62 -67 22 -26 56 -64 75 -85 54 -59 100 -128 100 -150 0 -20 14 -34 37 -37 7
-1 26 -12 43 -24 22 -16 30 -28 27 -41 -3 -11 -2 -19 1 -19 4 0 13 -13 20 -30
8 -16 17 -28 21 -27 13 4 162 -147 188 -190 14 -24 29 -43 34 -43 5 0 9 -7 9
-15 0 -8 14 -25 31 -37 17 -13 47 -45 67 -73 41 -56 67 -82 91 -90 19 -6 71
-117 71 -154 0 -14 4 -43 9 -64 6 -23 5 -39 -1 -43 -5 -3 -1 -12 9 -19 10 -7
15 -16 12 -20 -4 -3 -1 -27 5 -53 7 -26 12 -65 11 -87 -1 -25 5 -49 16 -64 10
-13 16 -27 14 -32 -3 -4 4 -24 15 -44 11 -19 20 -54 20 -76 0 -22 7 -54 16
-70 8 -17 20 -71 25 -121 5 -49 12 -95 16 -101 9 -15 23 -115 25 -184 1 -29 6
-53 11 -53 5 0 7 -9 4 -20 -3 -10 4 -35 14 -55 10 -19 19 -37 19 -40 0 -3 2
-10 4 -17 5 -15 20 -98 37 -203 6 -38 17 -82 25 -97 8 -15 19 -64 24 -110 6
-46 15 -94 20 -108 5 -14 18 -74 29 -135 17 -98 25 -146 36 -235 2 -14 4 -26
5 -27 1 -2 3 -6 5 -10 20 -73 48 -114 85 -127 26 -8 278 -10 940 -7 1045 4
1407 5 1540 3 52 -1 182 1 287 4 l193 6 10 37 c6 25 6 56 -1 96 -6 33 -15 87
-19 120 -15 113 -32 200 -51 256 -10 31 -19 71 -19 90 0 19 -5 50 -11 69 -5
19 -14 67 -19 105 -5 39 -14 97 -20 130 -6 33 -12 76 -12 95 -1 19 -7 40 -14
45 -7 6 -18 35 -23 65 -5 30 -14 73 -20 95 -31 126 -43 187 -38 205 3 11 2 22
-3 25 -4 3 -11 26 -15 52 -5 27 -9 53 -11 58 -23 98 -37 172 -40 225 -3 35
-11 71 -18 80 -8 8 -13 36 -12 63 1 27 -2 51 -6 53 -4 3 -8 20 -8 38 0 17 -5
37 -11 43 -7 7 -13 29 -13 50 -1 21 -9 52 -18 68 -9 17 -18 53 -20 80 -2 28
-7 55 -11 62 -4 6 -6 48 -5 93 1 47 -2 84 -8 88 -5 4 -10 36 -9 71 1 39 -3 68
-11 76 -15 15 -45 82 -67 150 -16 48 -37 158 -58 294 -5 36 -13 69 -17 75 -5
6 -16 63 -26 126 -15 104 -30 190 -43 260 -2 14 -6 42 -7 62 -1 21 -5 41 -9
45 -4 3 -7 23 -7 43 0 20 -4 40 -9 45 -6 6 -12 21 -14 35 -2 14 -7 32 -10 40
-3 8 -8 36 -12 62 -3 26 -10 50 -15 53 -6 3 -9 16 -8 28 0 12 -4 41 -11 65
-11 41 -16 63 -27 137 -2 17 -9 55 -15 85 -6 30 -13 71 -14 90 -1 19 -5 42 -8
50 -15 38 -23 89 -23 135 1 38 -4 54 -18 66 -16 13 -20 30 -20 95 -1 54 -6 85
-16 96 -8 10 -15 28 -17 40 -1 13 -9 46 -17 75 -12 43 -24 110 -30 173 -1 9
-5 20 -9 26 -3 6 -9 28 -12 50 -15 110 -18 132 -20 164 -2 19 -7 46 -13 60 -5
14 -8 28 -5 33 2 4 -3 7 -11 7 -9 0 -18 12 -22 28 -3 15 -13 52 -21 82 -8 30
-16 78 -19 105 -3 28 -11 75 -19 105 -7 30 -16 80 -20 110 -4 30 -13 67 -21
81 -7 15 -11 29 -8 31 8 9 -36 260 -51 293 -8 17 -19 62 -25 100 -13 87 -29
163 -42 195 -5 13 -13 56 -18 95 -12 93 -18 125 -41 223 -10 46 -17 102 -15
125 2 23 -1 53 -7 67 -5 14 -11 30 -12 35 -2 6 -10 37 -20 70 -26 94 -33 127
-36 165 -2 19 -8 42 -15 50 -7 8 -15 38 -18 65 -4 28 -13 84 -21 125 -24 129
-26 144 -28 195 -1 28 -6 56 -10 63 -5 7 -8 36 -6 65 1 28 -4 66 -12 82 -7 17
-13 48 -14 70 -1 42 -13 73 -30 74 -5 0 -11 16 -13 35 -1 19 -9 47 -17 63 -8
15 -15 42 -15 58 0 17 -5 50 -11 75 -15 60 -12 133 5 145 20 15 106 6 106 -11
0 -16 26 -19 35 -4 3 6 15 5 31 -2 22 -10 28 -9 47 14 12 14 27 25 32 24 6 0
14 28 18 64 4 36 11 77 16 91 5 15 5 33 1 39 -4 7 -8 686 -9 1509 -1 823 -4
1511 -7 1529 -4 19 -15 38 -28 44 -25 14 -152 19 -511 21 -253 2 -297 0 -322
-16 -24 -15 -61 14 -73 57 -6 23 -10 46 -8 51 1 6 -8 27 -20 48 -13 20 -27 61
-32 90 -4 28 -11 63 -15 77 -4 14 -9 43 -11 65 -5 67 -11 94 -22 108 -6 7 -14
28 -17 47 -11 66 -18 105 -22 125 -13 66 -36 194 -38 215 -13 106 -19 138 -30
160 -7 14 -11 35 -10 48 1 12 -2 22 -7 22 -4 0 -8 22 -8 48 0 27 -8 66 -20 89
-10 22 -24 69 -29 104 -6 35 -15 79 -21 98 -5 18 -10 67 -11 107 -1 41 -6 77
-10 80 -5 3 -7 18 -4 35 3 16 1 29 -5 29 -5 0 -10 15 -10 34 0 18 -9 45 -20
59 -11 14 -20 39 -20 55 0 17 -9 52 -20 78 -12 26 -23 72 -26 103 -8 85 -43
278 -64 351 -11 36 -21 86 -24 111 -3 26 -10 65 -16 88 -6 22 -11 57 -12 78 0
21 -5 44 -11 51 -5 7 -7 15 -4 18 3 3 2 16 -3 29 -5 12 -9 46 -11 76 -1 30 -6
59 -11 66 -6 7 -5 20 2 33 7 12 10 30 7 41 -6 24 11 45 43 52 39 9 65 76 62
157 -2 64 -4 2464 -2 2589 1 53 -4 71 -25 102 -14 22 -29 39 -33 39 -4 0 -20
12 -37 27 -35 33 -59 38 -76 16 -12 -14 -12 -16 1 -9 8 5 5 -2 -8 -15 -24 -26
-25 -26 -217 -19 -38 1 -78 -1 -88 -5 -10 -4 -51 -5 -90 -1 -40 4 -90 7 -112
7 -40 1 -81 16 -71 26 3 3 -5 14 -18 24 -19 15 -25 33 -32 86 -9 81 -7 68 -21
123 -7 25 -26 108 -43 185 -17 77 -37 163 -45 190 -8 28 -19 82 -24 120 -6 39
-13 81 -16 95 -3 14 -9 54 -14 90 -5 36 -13 76 -19 90 -5 14 -13 50 -17 80 -4
30 -14 65 -22 77 -8 12 -18 59 -23 105 -11 104 -38 256 -51 280 -5 10 -8 18
-6 18 2 0 -2 33 -10 73 -8 39 -18 109 -22 153 -5 45 -12 87 -15 93 -4 6 -9 24
-11 41 -6 53 -26 100 -45 110 -11 6 -53 13 -95 17 -47 4 -82 12 -92 21 -13 13
-19 13 -51 -4 -36 -18 -85 -19 -1474 -22 l-1437 -3 -20 23 c-12 12 -21 17 -21
11z"/>
<path d="M12192 18850 c0 -16 4 -32 9 -35 5 -4 9 10 9 29 0 43 -17 49 -18 6z"/>
<path d="M6782 12359 c2 -7 10 -15 17 -17 8 -3 12 1 9 9 -2 7 -10 15 -17 17
-8 3 -12 -1 -9 -9z"/>
<path d="M9980 4670 c0 -5 4 -10 9 -10 6 0 13 5 16 10 3 6 -1 10 -9 10 -9 0
-16 -4 -16 -10z"/>
<path d="M10335 4670 c-3 -5 -1 -10 4 -10 6 0 11 5 11 10 0 6 -2 10 -4 10 -3
0 -8 -4 -11 -10z"/>
<path d="M9740 4405 c-14 -16 -3 -20 19 -6 8 5 9 11 3 15 -5 3 -15 -1 -22 -9z"/>
<path d="M11840 2812 c0 -12 19 -26 26 -19 2 2 -2 10 -11 17 -9 8 -15 8 -15 2z"/>
<path d="M12040 2589 c0 -5 5 -7 10 -4 6 3 10 8 10 11 0 2 -4 4 -10 4 -5 0
-10 -5 -10 -11z"/>
<path d="M8010 1919 c0 -5 5 -7 10 -4 6 3 10 8 10 11 0 2 -4 4 -10 4 -5 0 -10
-5 -10 -11z"/>
<path d="M4440 1386 c0 -9 5 -16 10 -16 6 0 10 4 10 9 0 6 -4 13 -10 16 -5 3
-10 -1 -10 -9z"/>
</g>
</svg>
